<svg xmlns="http://www.w3.org/2000/svg" viewBox="0 0 1000 1000" width="1000" height="1000">
  <defs>
    <!-- Radial gradients for galaxy effects -->
    <radialGradient id="galaxy-core" cx="50%" cy="40%" r="60%" fx="50%" fy="40%">
      <stop offset="0%" stop-color="#8A5DE8" stop-opacity="0.7"/>
      <stop offset="40%" stop-color="#6225E6" stop-opacity="0.5"/>
      <stop offset="70%" stop-color="#1C1543" stop-opacity="0.3"/>
      <stop offset="100%" stop-color="#0F0A29" stop-opacity="0"/>
    </radialGradient>
    
    <radialGradient id="galaxy-accent1" cx="30%" cy="20%" r="50%" fx="30%" fy="20%">
      <stop offset="0%" stop-color="#4DC5FF" stop-opacity="0.6"/>
      <stop offset="60%" stop-color="#4DC5FF" stop-opacity="0.1"/>
      <stop offset="100%" stop-color="#4DC5FF" stop-opacity="0"/>
    </radialGradient>
    
    <radialGradient id="galaxy-accent2" cx="70%" cy="60%" r="40%" fx="70%" fy="60%">
      <stop offset="0%" stop-color="#8A5DE8" stop-opacity="0.5"/>
      <stop offset="70%" stop-color="#8A5DE8" stop-opacity="0.1"/>
      <stop offset="100%" stop-color="#8A5DE8" stop-opacity="0"/>
    </radialGradient>
    
    <radialGradient id="galaxy-accent3" cx="20%" cy="80%" r="45%" fx="20%" fy="80%">
      <stop offset="0%" stop-color="#6225E6" stop-opacity="0.4"/>
      <stop offset="70%" stop-color="#6225E6" stop-opacity="0.1"/>
      <stop offset="100%" stop-color="#6225E6" stop-opacity="0"/>
    </radialGradient>
    
    <filter id="star-glow" x="-50%" y="-50%" width="200%" height="200%">
      <feGaussianBlur stdDeviation="1" result="blur"/>
      <feComposite in="SourceGraphic" in2="blur" operator="over"/>
    </filter>
  </defs>
  
  <!-- Background -->
  <rect x="0" y="0" width="1000" height="1000" fill="#0F0A29"/>
  
  <!-- Galaxy effects -->
  <circle cx="500" cy="400" r="600" fill="url(#galaxy-core)"/>
  <circle cx="300" cy="200" r="300" fill="url(#galaxy-accent1)"/>
  <circle cx="700" cy="600" r="250" fill="url(#galaxy-accent2)"/>
  <circle cx="200" cy="800" r="280" fill="url(#galaxy-accent3)"/>
  
  <!-- Stars -->
  <g filter="url(#star-glow)">
    <!-- Brighter stars -->
    <circle cx="120" cy="150" r="1.5" fill="white" opacity="0.9"/>
    <circle cx="340" cy="90" r="2" fill="white" opacity="0.9"/>
    <circle cx="580" cy="120" r="1.5" fill="white" opacity="0.8"/>
    <circle cx="780" cy="200" r="2" fill="white" opacity="1"/>
    <circle cx="900" cy="300" r="1.5" fill="white" opacity="0.9"/>
    <circle cx="840" cy="460" r="2" fill="white" opacity="0.9"/>
    <circle cx="940" cy="600" r="1.5" fill="white" opacity="0.8"/>
    <circle cx="800" cy="750" r="2" fill="white" opacity="1"/>
    <circle cx="650" cy="830" r="1.5" fill="white" opacity="0.9"/>
    <circle cx="450" cy="900" r="2" fill="white" opacity="0.9"/>
    <circle cx="250" cy="850" r="1.5" fill="white" opacity="0.8"/>
    <circle cx="100" cy="730" r="2" fill="white" opacity="1"/>
    <circle cx="50" cy="550" r="1.5" fill="white" opacity="0.9"/>
    <circle cx="80" cy="350" r="2" fill="white" opacity="0.9"/>
    <circle cx="170" cy="250" r="1.5" fill="white" opacity="0.8"/>
    
    <!-- Medium stars -->
    <circle cx="200" cy="100" r="1" fill="white" opacity="0.7"/>
    <circle cx="420" cy="70" r="1" fill="white" opacity="0.6"/>
    <circle cx="620" cy="180" r="1" fill="white" opacity="0.7"/>
    <circle cx="740" cy="280" r="1" fill="white" opacity="0.6"/>
    <circle cx="820" cy="380" r="1" fill="white" opacity="0.7"/>
    <circle cx="880" cy="500" r="1" fill="white" opacity="0.6"/>
    <circle cx="860" cy="620" r="1" fill="white" opacity="0.7"/>
    <circle cx="750" cy="710" r="1" fill="white" opacity="0.6"/>
    <circle cx="600" cy="790" r="1" fill="white" opacity="0.7"/>
    <circle cx="400" cy="850" r="1" fill="white" opacity="0.6"/>
    <circle cx="200" cy="800" r="1" fill="white" opacity="0.7"/>
    <circle cx="120" cy="680" r="1" fill="white" opacity="0.6"/>
    <circle cx="100" cy="520" r="1" fill="white" opacity="0.7"/>
    <circle cx="140" cy="380" r="1" fill="white" opacity="0.6"/>
    <circle cx="230" cy="220" r="1" fill="white" opacity="0.7"/>
    
    <!-- Small stars - lots of them -->
    <g opacity="0.5">
      <circle cx="150" cy="70" r="0.5" fill="white"/>
      <circle cx="250" cy="50" r="0.5" fill="white"/>
      <circle cx="350" cy="40" r="0.5" fill="white"/>
      <circle cx="450" cy="60" r="0.5" fill="white"/>
      <circle cx="550" cy="80" r="0.5" fill="white"/>
      <circle cx="650" cy="30" r="0.5" fill="white"/>
      <circle cx="750" cy="70" r="0.5" fill="white"/>
      <circle cx="850" cy="110" r="0.5" fill="white"/>
      <circle cx="950" cy="150" r="0.5" fill="white"/>
      <circle cx="970" cy="250" r="0.5" fill="white"/>
      <circle cx="950" cy="350" r="0.5" fill="white"/>
      <circle cx="980" cy="450" r="0.5" fill="white"/>
      <circle cx="950" cy="550" r="0.5" fill="white"/>
      <circle cx="970" cy="650" r="0.5" fill="white"/>
      <circle cx="940" cy="750" r="0.5" fill="white"/>
      <circle cx="900" cy="850" r="0.5" fill="white"/>
      <circle cx="850" cy="900" r="0.5" fill="white"/>
      <circle cx="750" cy="950" r="0.5" fill="white"/>
      <circle cx="650" cy="930" r="0.5" fill="white"/>
      <circle cx="550" cy="960" r="0.5" fill="white"/>
      <circle cx="450" cy="930" r="0.5" fill="white"/>
      <circle cx="350" cy="950" r="0.5" fill="white"/>
      <circle cx="250" cy="920" r="0.5" fill="white"/>
      <circle cx="150" cy="890" r="0.5" fill="white"/>
      <circle cx="80" cy="820" r="0.5" fill="white"/>
      <circle cx="40" cy="720" r="0.5" fill="white"/>
      <circle cx="30" cy="620" r="0.5" fill="white"/>
      <circle cx="20" cy="520" r="0.5" fill="white"/>
      <circle cx="30" cy="420" r="0.5" fill="white"/>
      <circle cx="50" cy="320" r="0.5" fill="white"/>
      <circle cx="70" cy="220" r="0.5" fill="white"/>
      <circle cx="90" cy="120" r="0.5" fill="white"/>
      
      <!-- More small stars to fill the space -->
      <circle cx="300" cy="150" r="0.5" fill="white"/>
      <circle cx="400" cy="180" r="0.5" fill="white"/>
      <circle cx="500" cy="120" r="0.5" fill="white"/>
      <circle cx="600" cy="220" r="0.5" fill="white"/>
      <circle cx="700" cy="170" r="0.5" fill="white"/>
      <circle cx="800" cy="240" r="0.5" fill="white"/>
      <circle cx="870" cy="330" r="0.5" fill="white"/>
      <circle cx="830" cy="430" r="0.5" fill="white"/>
      <circle cx="870" cy="530" r="0.5" fill="white"/>
      <circle cx="830" cy="630" r="0.5" fill="white"/>
      <circle cx="850" cy="730" r="0.5" fill="white"/>
      <circle cx="780" cy="810" r="0.5" fill="white"/>
      <circle cx="680" cy="850" r="0.5" fill="white"/>
      <circle cx="580" cy="880" r="0.5" fill="white"/>
      <circle cx="480" cy="840" r="0.5" fill="white"/>
      <circle cx="380" cy="880" r="0.5" fill="white"/>
      <circle cx="280" cy="830" r="0.5" fill="white"/>
      <circle cx="180" cy="780" r="0.5" fill="white"/>
      <circle cx="120" cy="710" r="0.5" fill="white"/>
      <circle cx="90" cy="610" r="0.5" fill="white"/>
      <circle cx="110" cy="510" r="0.5" fill="white"/>
      <circle cx="80" cy="410" r="0.5" fill="white"/>
      <circle cx="120" cy="310" r="0.5" fill="white"/>
      <circle cx="160" cy="210" r="0.5" fill="white"/>
      
      <!-- Even more scattered stars -->
      <circle cx="230" cy="300" r="0.5" fill="white"/>
      <circle cx="330" cy="250" r="0.5" fill="white"/>
      <circle cx="430" cy="280" r="0.5" fill="white"/>
      <circle cx="530" cy="240" r="0.5" fill="white"/>
      <circle cx="630" cy="320" r="0.5" fill="white"/>
      <circle cx="730" cy="350" r="0.5" fill="white"/>
      <circle cx="790" cy="420" r="0.5" fill="white"/>
      <circle cx="760" cy="520" r="0.5" fill="white"/>
      <circle cx="790" cy="620" r="0.5" fill="white"/>
      <circle cx="740" cy="700" r="0.5" fill="white"/>
      <circle cx="640" cy="740" r="0.5" fill="white"/>
      <circle cx="540" cy="760" r="0.5" fill="white"/>
      <circle cx="440" cy="730" r="0.5" fill="white"/>
      <circle cx="340" cy="760" r="0.5" fill="white"/>
      <circle cx="240" cy="720" r="0.5" fill="white"/>
      <circle cx="160" cy="640" r="0.5" fill="white"/>
      <circle cx="150" cy="540" r="0.5" fill="white"/>
      <circle cx="170" cy="440" r="0.5" fill="white"/>
      <circle cx="210" cy="360" r="0.5" fill="white"/>
    </g>
  </g>
  
  <!-- Nebula-like elements -->
  <path d="M400,300 Q500,200 600,300 T800,250 Q850,400 700,450 T500,500 Q300,550 400,300" 
        fill="#6225E6" opacity="0.15" />
  
  <path d="M200,600 Q300,500 400,550 T600,500 Q700,600 550,700 T350,650 Q200,700 200,600" 
        fill="#4DC5FF" opacity="0.1" />
        
  <!-- Subtle particle effect for depth -->
  <g opacity="0.3">
    <circle cx="300" cy="300" r="80" fill="#6225E6" filter="url(#star-glow)"/>
    <circle cx="700" cy="400" r="60" fill="#4DC5FF" filter="url(#star-glow)"/>
    <circle cx="500" cy="700" r="70" fill="#8A5DE8" filter="url(#star-glow)"/>
  </g>
</svg>
